<svg fill="none" xmlns="http://www.w3.org/2000/svg">
  <symbol id="crop-small" viewBox="0 0 22 22">
    <path d="M16 14h2V6a2 2 0 0 0-2-2H8v2h8v8ZM6 16V0H4v4H0v2h4v10a2 2 0 0 0 2 2h10v4h2v-4h4v-2H6Z"/>
  </symbol>
  <symbol id="crop-big" viewBox="0 0 44 44">
    <path d="M32 28h4V12a4 4 0 0 0-4-4H16v4h16v16Zm-20 4V0H8v8H0v4h8v20a4 4 0 0 0 4 4h20v8h4v-8h8v-4H12Z"/>
  </symbol>
  <symbol id="brightness-small" viewBox="0 0 24 22">
    <path d="M16.56 9.15 7.62 0 6.2 1.45 8.6 3.88 3.44 9.15a1.55 1.55 0 0 0 0 2.17l5.5 5.63a1.48 1.48 0 0 0 2.12 0l5.5-5.63a1.55 1.55 0 0 0 0-2.17ZM5.21 10.23 10 5.33l4.8 4.9H5.2ZM19 11.77s-2 2.21-2 3.58c0 .54.21 1.06.59 1.45a1.98 1.98 0 0 0 2.82 0c.38-.39.59-.9.59-1.45 0-1.37-2-3.58-2-3.58ZM24 20.47H0V22h24v-1.53Z"/>
  </symbol>
  <symbol id="brightness-big" viewBox="0 0 48 43">
    <path d="M33.12 17.88L15.24 0L12.41 2.83L17.17 7.59L6.88 17.88C6.3182 18.4425 6.00264 19.205 6.00264 20C6.00264 20.795 6.3182 21.5575 6.88 22.12L17.88 33.12C18.4425 33.6818 19.205 33.9974 20 33.9974C20.795 33.9974 21.5575 33.6818 22.12 33.12L33.12 22.12C33.6818 21.5575 33.9974 20.795 33.9974 20C33.9974 19.205 33.6818 18.4425 33.12 17.88ZM10.41 20L20 10.42L29.59 20H10.41ZM38 23C38 23 34 27.33 34 30C34 31.0609 34.4214 32.0783 35.1716 32.8284C35.9217 33.5786 36.9391 34 38 34C39.0609 34 40.0783 33.5786 40.8284 32.8284C41.5786 32.0783 42 31.0609 42 30C42 27.33 38 23 38 23Z"/>
    <path d="M48 40H0V43H48V40Z"/>
  </symbol>
  <symbol id="fill-small" viewBox="0 0 16 16">
    <path d="M8 2a6 6 0 1 1 0 12A6 6 0 0 1 8 2Zm0-2a8 8 0 1 0 0 16A8 8 0 0 0 8 0Z"/>
    <path d="M8 12.14a4.26 4.26 0 0 0 0-8.5"/>
  </symbol>
  <symbol id="fill-big" viewBox="0 0 32 32">
    <path d="M16 4a12 12 0 1 1 0 24 12 12 0 0 1 0-24Zm0-4a16 16 0 1 0 0 32 16 16 0 0 0 0-32Z"/>
    <path d="M16 24.29a8.52 8.52 0 0 0 0-17"/>
  </symbol>
</svg>
