<svg fill="none" xmlns="http://www.w3.org/2000/svg">
  <symbol id="yes" viewBox="0 0 31 21">
    <path d="M30.56.43a1.54 1.54 0 0 0-1.1-.43 1.6 1.6 0 0 0-1.08.43l-18 17.07-7.8-7.39a1.58 1.58 0 0 0-2.13.04c-.28.26-.44.62-.45 1 0 .37.14.74.41 1.01l8.88 8.41a1.53 1.53 0 0 0 1.08.43c.41 0 .8-.15 1.09-.43l19.1-18.09c.28-.27.44-.64.44-1.02 0-.39-.16-.76-.44-1.03Z"/>
  </symbol>
  <symbol id="no" viewBox="0 0 27 27">
    <path d="M15.64 13.5 26.55 2.6A1.5 1.5 0 0 0 25.48 0c-.4 0-.78.16-1.07.44l-10.9 10.92L2.59.45A1.5 1.5 0 0 0 0 1.52c0 .4.16.78.44 1.07L11.37 13.5.45 24.4a1.5 1.5 0 0 0 0 2.15 1.51 1.51 0 0 0 2.14 0L13.5 15.65l10.9 10.9a1.52 1.52 0 0 0 1.91.2 1.51 1.51 0 0 0 .23-2.33L15.65 13.5Z" />
  </symbol>
</svg>
